{
  "accessors": [
    {
      "bufferView": 2,
      "componentType": 5126,
      "count": 1037,
      "max": [
        0.0068639330565929413,
        0.002563161076977849,
        0.0050532249733805656
      ],
      "min": [
        -0.0068639330565929413,
        -0.0018058298155665398,
        -0.0049862023442983627
      ],
      "type": "VEC3"
    },
    {
      "bufferView": 2,
      "byteOffset": 12444,
      "componentType": 5126,
      "count": 1037,
      "max": [
        0.99998879432678223,
        0.99999904632568359,
        0.9989503026008606
      ],
      "min": [
        -0.99998879432678223,
        -0.99997389316558838,
        -0.99810707569122314
      ],
      "type": "VEC3"
    },
    {
      "bufferView": 1,
      "componentType": 5126,
      "count": 1037,
      "max": [
        0.97718608379364014,
        0.82565617561340332
      ],
      "min": [
        0.022814152762293816,
        0.10763625055551529
      ],
      "type": "VEC2"
    },
    {
      "bufferView": 0,
      "componentType": 5125,
      "count": 4992,
      "max": [
        1036
      ],
      "min": [
        0
      ],
      "type": "SCALAR"
    },
    {
      "bufferView": 2,
      "byteOffset": 24888,
      "componentType": 5126,
      "count": 65533,
      "max": [
        0.10073235630989075,
        0.059430867433547974,
        0.035258855670690536
      ],
      "min": [
        -0.10060834884643555,
        -0.0018675550818443298,
        -0.043504770845174789
      ],
      "type": "VEC3"
    },
    {
      "bufferView": 2,
      "byteOffset": 811284,
      "componentType": 5126,
      "count": 65533,
      "max": [
        0.99998831748962402,
        0.99998652935028076,
        0.99988836050033569
      ],
      "min": [
        -0.99997937679290771,
        -0.99992436170578003,
        -1
      ],
      "type": "VEC3"
    },
    {
      "bufferView": 1,
      "byteOffset": 8296,
      "componentType": 5126,
      "count": 65533,
      "max": [
        0.875,
        1.0003120899200439
      ],
      "min": [
        0,
        0
      ],
      "type": "VEC2"
    },
    {
      "bufferView": 0,
      "byteOffset": 19968,
      "componentType": 5125,
      "count": 98289,
      "max": [
        65532
      ],
      "min": [
        0
      ],
      "type": "SCALAR"
    },
    {
      "bufferView": 2,
      "byteOffset": 1597680,
      "componentType": 5126,
      "count": 65534,
      "max": [
        0.10073234885931015,
        0.074646465480327606,
        0.035258855670690536
      ],
      "min": [
        -0.10073234885931015,
        -0.0018675513565540314,
        -0.043504770845174789
      ],
      "type": "VEC3"
    },
    {
      "bufferView": 2,
      "byteOffset": 2384088,
      "componentType": 5126,
      "count": 65534,
      "max": [
        0.99997913837432861,
        0.99998652935028076,
        0.99988830089569092
      ],
      "min": [
        -0.99998825788497925,
        -0.99998658895492554,
        -1
      ],
      "type": "VEC3"
    },
    {
      "bufferView": 1,
      "byteOffset": 532560,
      "componentType": 5126,
      "count": 65534,
      "max": [
        0.75000011920928955,
        1.0003120899200439
      ],
      "min": [
        0,
        0
      ],
      "type": "VEC2"
    },
    {
      "bufferView": 0,
      "byteOffset": 413124,
      "componentType": 5125,
      "count": 98298,
      "max": [
        65533
      ],
      "min": [
        0
      ],
      "type": "SCALAR"
    },
    {
      "bufferView": 2,
      "byteOffset": 3170496,
      "componentType": 5126,
      "count": 65534,
      "max": [
        0.10073234140872955,
        0.075671061873435974,
        0.035258855670690536
      ],
      "min": [
        -0.10073235630989075,
        0.036901753395795822,
        -0.043504774570465088
      ],
      "type": "VEC3"
    },
    {
      "bufferView": 2,
      "byteOffset": 3956904,
      "componentType": 5126,
      "count": 65534,
      "max": [
        0.99998825788497925,
        0.9999244213104248,
        0.99988830089569092
      ],
      "min": [
        -0.99997937679290771,
        -0.99998652935028076,
        -1
      ],
      "type": "VEC3"
    },
    {
      "bufferView": 1,
      "byteOffset": 1056832,
      "componentType": 5126,
      "count": 65534,
      "max": [
        0.75000011920928955,
        1.0003120899200439
      ],
      "min": [
        0,
        0
      ],
      "type": "VEC2"
    },
    {
      "bufferView": 0,
      "byteOffset": 806316,
      "componentType": 5125,
      "count": 98298,
      "max": [
        65533
      ],
      "min": [
        0
      ],
      "type": "SCALAR"
    },
    {
      "bufferView": 2,
      "byteOffset": 4743312,
      "componentType": 5126,
      "count": 42143,
      "max": [
        0.048017323017120361,
        0.075671061873435974,
        0.035188306123018265
      ],
      "min": [
        -0.10068973898887634,
        0.036901753395795822,
        -0.043504774570465088
      ],
      "type": "VEC3"
    },
    {
      "bufferView": 2,
      "byteOffset": 5249028,
      "componentType": 5126,
      "count": 42143,
      "max": [
        1,
        1,
        0.99959021806716919
      ],
      "min": [
        -1,
        -0.99959021806716919,
        -1
      ],
      "type": "VEC3"
    },
    {
      "bufferView": 1,
      "byteOffset": 1581104,
      "componentType": 5126,
      "count": 42143,
      "max": [
        0.87266826629638672,
        1.0003120899200439
      ],
      "min": [
        0.234375,
        0
      ],
      "type": "VEC2"
    },
    {
      "bufferView": 0,
      "byteOffset": 1199508,
      "componentType": 5125,
      "count": 63333,
      "max": [
        42142
      ],
      "min": [
        0
      ],
      "type": "SCALAR"
    },
    {
      "bufferView": 2,
      "byteOffset": 5754744,
      "componentType": 5126,
      "count": 14443,
      "max": [
        0.091214388608932495,
        0.059912916272878647,
        0.019370699301362038
      ],
      "min": [
        -0.091205492615699768,
        0.013890590518712997,
        -0.026651972904801369
      ],
      "type": "VEC3"
    },
    {
      "bufferView": 2,
      "byteOffset": 5928060,
      "componentType": 5126,
      "count": 14443,
      "max": [
        1,
        0.99943745136260986,
        0.99943745136260986
      ],
      "min": [
        -1,
        -0.99943745136260986,
        -0.99943745136260986
      ],
      "type": "VEC3"
    },
    {
      "bufferView": 1,
      "byteOffset": 1918248,
      "componentType": 5126,
      "count": 14443,
      "max": [
        1.1732548475265503,
        1.1579380035400391
      ],
      "min": [
        -0.16436633467674255,
        -0.17969313263893127
      ],
      "type": "VEC2"
    },
    {
      "bufferView": 0,
      "byteOffset": 1452840,
      "componentType": 5125,
      "count": 80064,
      "max": [
        14442
      ],
      "min": [
        0
      ],
      "type": "SCALAR"
    },
    {
      "bufferView": 2,
      "byteOffset": 6101376,
      "componentType": 5126,
      "count": 5374,
      "max": [
        0.080127798020839691,
        0.046590883284807205,
        0.035467922687530518
      ],
      "min": [
        -0.080127798020839691,
        0.027213882654905319,
        0.033348750323057175
      ],
      "type": "VEC3"
    },
    {
      "bufferView": 2,
      "byteOffset": 6165864,
      "componentType": 5126,
      "count": 5374,
      "max": [
        0.93434524536132812,
        0.98970276117324829,
        0.99993211030960083
      ],
      "min": [
        -0.94392865896224976,
        -0.9896094799041748,
        0.14252471923828125
      ],
      "type": "VEC3"
    },
    {
      "bufferView": 1,
      "byteOffset": 2033792,
      "componentType": 5126,
      "count": 5374,
      "max": [
        1.0007703304290771,
        0.97600299119949341
      ],
      "min": [
        0.00091075897216796875,
        0.81974959373474121
      ],
      "type": "VEC2"
    },
    {
      "bufferView": 0,
      "byteOffset": 1773096,
      "componentType": 5125,
      "count": 8130,
      "max": [
        5373
      ],
      "min": [
        0
      ],
      "type": "SCALAR"
    },
    {
      "bufferView": 2,
      "byteOffset": 6230352,
      "componentType": 5126,
      "count": 4410,
      "max": [
        0.078080669045448303,
        0.076271958649158478,
        0.030146770179271698
      ],
      "min": [
        -0.078080654144287109,
        -0.0014344155788421631,
        -0.03332936018705368
      ],
      "type": "VEC3"
    },
    {
      "bufferView": 2,
      "byteOffset": 6283272,
      "componentType": 5126,
      "count": 4410,
      "max": [
        0.99999964237213135,
        1,
        0.99793165922164917
      ],
      "min": [
        -0.9999995231628418,
        -1,
        -0.99545824527740479
      ],
      "type": "VEC3"
    },
    {
      "bufferView": 1,
      "byteOffset": 2076784,
      "componentType": 5126,
      "count": 4410,
      "max": [
        0.98772615194320679,
        0.50222104787826538
      ],
      "min": [
        0.47825968265533447,
        0.011863663792610168
      ],
      "type": "VEC2"
    },
    {
      "bufferView": 0,
      "byteOffset": 1805616,
      "componentType": 5125,
      "count": 22656,
      "max": [
        4409
      ],
      "min": [
        0
      ],
      "type": "SCALAR"
    }
  ],
  "asset": {
    "extras": {
      "author": "nubino (https://sketchfab.com/nubino)",
      "license": "CC-BY-4.0 (http://creativecommons.org/licenses/by/4.0/)",
      "source": "https://sketchfab.com/3d-models/bluetooth-speaker-1f78dfb5ca6b42d0bf97799061cc85b0",
      "title": "Bluetooth Speaker"
    },
    "generator": "Sketchfab-9.70.0",
    "version": "2.0"
  },
  "bufferViews": [
    {
      "buffer": 0,
      "byteLength": 1896240,
      "byteOffset": 0,
      "name": "floatBufferViews",
      "target": 34963
    },
    {
      "buffer": 0,
      "byteLength": 2112064,
      "byteOffset": 1896240,
      "byteStride": 8,
      "name": "floatBufferViews",
      "target": 34962
    },
    {
      "buffer": 0,
      "byteLength": 6336192,
      "byteOffset": 4008304,
      "byteStride": 12,
      "name": "floatBufferViews",
      "target": 34962
    }
  ],
  "buffers": [
    {
      "byteLength": 10344496,
      "uri": "scene4.bin"
    }
  ],
  "images": [
    {
      "uri": "Plaque_metallicRoughness.png"
    },
    {
      "uri": "RubberButtons_emissive.png"
    }
  ],
  "materials": [
    {
      "doubleSided": true,
      "emissiveFactor": [
        0,
        0,
        0
      ],
      "name": "Plaque",
      "pbrMetallicRoughness": {
        "baseColorFactor": [
          0.172232,
          0.172232,
          0.172232,
          1
        ],
        "metallicFactor": 1,
        "metallicRoughnessTexture": {
          "index": 0,
          "texCoord": 0
        },
        "roughnessFactor": 0.44654088050000001
      }
    },
    {
      "doubleSided": true,
      "emissiveFactor": [
        0,
        0,
        0
      ],
      "name": "PlasticBlack",
      "pbrMetallicRoughness": {
        "baseColorFactor": [
          0,
          0,
          0,
          1
        ],
        "metallicFactor": 0,
        "roughnessFactor": 0.3899371069
      }
    },
    {
      "doubleSided": true,
      "emissiveFactor": [
        0,
        0,
        0
      ],
      "name": "MetallPassive",
      "pbrMetallicRoughness": {
        "baseColorFactor": [
          0.80000000000000004,
          0.80000000000000004,
          0.80000000000000004,
          1
        ],
        "metallicFactor": 1,
        "metallicRoughnessTexture": {
          "index": 0,
          "texCoord": 0
        },
        "roughnessFactor": 0.4402515723
      }
    },
    {
      "doubleSided": true,
      "emissiveFactor": [
        1,
        1,
        1
      ],
      "emissiveTexture": {
        "index": 1,
        "texCoord": 0
      },
      "name": "RubberButtons",
      "pbrMetallicRoughness": {
        "baseColorFactor": [
          0.0050976149999999998,
          0.0050976149999999998,
          0.0050976149999999998,
          1
        ],
        "metallicFactor": 0,
        "roughnessFactor": 0.79874213839999997
      }
    },
    {
      "doubleSided": true,
      "emissiveFactor": [
        0,
        0,
        0
      ],
      "name": "Mesh",
      "pbrMetallicRoughness": {
        "baseColorFactor": [
          0.012578616399999999,
          0.012578616399999999,
          0.012578616399999999,
          1
        ],
        "baseColorTexture": {
          "index": 1,
          "texCoord": 0
        },
        "metallicFactor": 1,
        "roughnessFactor": 0.3459119497
      }
    }
  ],
  "meshes": [
    {
      "name": "BluetoothSpeaker_Plaque_0",
      "primitives": [
        {
          "attributes": {
            "NORMAL": 1,
            "POSITION": 0,
            "TEXCOORD_0": 2
          },
          "indices": 3,
          "material": 0,
          "mode": 4
        }
      ]
    },
    {
      "name": "BluetoothSpeaker_PlasticBlack_0",
      "primitives": [
        {
          "attributes": {
            "NORMAL": 5,
            "POSITION": 4,
            "TEXCOORD_0": 6
          },
          "indices": 7,
          "material": 1,
          "mode": 4
        }
      ]
    },
    {
      "name": "BluetoothSpeaker_PlasticBlack_0",
      "primitives": [
        {
          "attributes": {
            "NORMAL": 9,
            "POSITION": 8,
            "TEXCOORD_0": 10
          },
          "indices": 11,
          "material": 1,
          "mode": 4
        }
      ]
    },
    {
      "name": "BluetoothSpeaker_PlasticBlack_0",
      "primitives": [
        {
          "attributes": {
            "NORMAL": 13,
            "POSITION": 12,
            "TEXCOORD_0": 14
          },
          "indices": 15,
          "material": 1,
          "mode": 4
        }
      ]
    },
    {
      "name": "BluetoothSpeaker_PlasticBlack_0",
      "primitives": [
        {
          "attributes": {
            "NORMAL": 17,
            "POSITION": 16,
            "TEXCOORD_0": 18
          },
          "indices": 19,
          "material": 1,
          "mode": 4
        }
      ]
    },
    {
      "name": "BluetoothSpeaker_MetallPassive_0",
      "primitives": [
        {
          "attributes": {
            "NORMAL": 21,
            "POSITION": 20,
            "TEXCOORD_0": 22
          },
          "indices": 23,
          "material": 2,
          "mode": 4
        }
      ]
    },
    {
      "name": "BluetoothSpeaker_RubberButtons_0",
      "primitives": [
        {
          "attributes": {
            "NORMAL": 25,
            "POSITION": 24,
            "TEXCOORD_0": 26
          },
          "indices": 27,
          "material": 3,
          "mode": 4
        }
      ]
    },
    {
      "name": "BluetoothSpeaker_Mesh_0",
      "primitives": [
        {
          "attributes": {
            "NORMAL": 29,
            "POSITION": 28,
            "TEXCOORD_0": 30
          },
          "indices": 31,
          "material": 4,
          "mode": 4
        }
      ]
    }
  ],
  "nodes": [
    {
      "children": [
        1
      ],
      "name": "RootNode (gltf orientation matrix)",
      "rotation": [
        -0.70710678118654746,
        -0,
        -0,
        0.70710678118654757
      ]
    },
    {
      "children": [
        2
      ],
      "matrix": [
        0.0099263722077012062,
        0,
        0,
        0,
        0,
        0.0099263722077012062,
        0,
        0,
        0,
        0,
        0.0099263722077012062,
        0,
        0,
        4.9831946569156571e-08,
        1.6807133818019793e-07,
        1
      ],
      "name": "RootNode (model correction matrix)"
    },
    {
      "children": [
        3
      ],
      "matrix": [
        1,
        0,
        0,
        0,
        0,
        0,
        1,
        0,
        0,
        -1,
        0,
        0,
        0,
        0,
        0,
        1
      ],
      "name": "11fff23f7c6445fb9e1e2c83a38a95d1.fbx"
    },
    {
      "children": [
        4
      ],
      "name": "RootNode"
    },
    {
      "children": [
        5,
        6,
        7,
        8,
        9,
        10,
        11,
        12
      ],
      "matrix": [
        102.82224273681641,
        0,
        0,
        0,
        -0,
        -1.6751869643273934e-05,
        -102.82224273681504,
        0,
        0,
        102.82224273681504,
        -1.6751869643273934e-05,
        0,
        -2.5870072750677764e-09,
        4.5180187225341797,
        3.7943215370178223,
        1
      ],
      "name": "BluetoothSpeaker"
    },
    {
      "mesh": 0,
      "name": "BluetoothSpeaker_Plaque_0"
    },
    {
      "mesh": 1,
      "name": "BluetoothSpeaker_PlasticBlack_0"
    },
    {
      "mesh": 2,
      "name": "BluetoothSpeaker_PlasticBlack_0"
    },
    {
      "mesh": 3,
      "name": "BluetoothSpeaker_PlasticBlack_0"
    },
    {
      "mesh": 4,
      "name": "BluetoothSpeaker_PlasticBlack_0"
    },
    {
      "mesh": 5,
      "name": "BluetoothSpeaker_MetallPassive_0"
    },
    {
      "mesh": 6,
      "name": "BluetoothSpeaker_RubberButtons_0"
    },
    {
      "mesh": 7,
      "name": "BluetoothSpeaker_Mesh_0"
    }
  ],
  "samplers": [
    {
      "magFilter": 9729,
      "minFilter": 9987,
      "wrapS": 10497,
      "wrapT": 10497
    }
  ],
  "scene": 0,
  "scenes": [
    {
      "name": "OSG_Scene",
      "nodes": [
        0
      ]
    }
  ],
  "textures": [
    {
      "sampler": 0,
      "source": 0
    },
    {
      "sampler": 0,
      "source": 1
    }
  ]
}

