{
  "accessors": [
    {
      "bufferView": 2,
      "componentType": 5126,
      "count": 65532,
      "max": [
        0.81300097703933716,
        0.26547101140022278,
        0.23188599944114685
      ],
      "min": [
        -0.81257599592208862,
        -0.26653501391410828,
        -0.23846399784088135
      ],
      "type": "VEC3"
    },
    {
      "bufferView": 2,
      "byteOffset": 786384,
      "componentType": 5126,
      "count": 65532,
      "max": [
        1,
        0.99999648332595825,
        0.99999964237213135
      ],
      "min": [
        -1,
        -0.99999850988388062,
        -1
      ],
      "type": "VEC3"
    },
    {
      "bufferView": 3,
      "componentType": 5126,
      "count": 65532,
      "max": [
        0.99999964237213135,
        1,
        0.9999997615814209,
        1
      ],
      "min": [
        -0.99996167421340942,
        -0.99999994039535522,
        -0.99999856948852539,
        -1
      ],
      "type": "VEC4"
    },
    {
      "bufferView": 1,
      "componentType": 5126,
      "count": 65532,
      "max": [
        0.86760199069976807,
        0.94345098733901978
      ],
      "min": [
        0.0013470000121742487,
        0
      ],
      "type": "VEC2"
    },
    {
      "bufferView": 0,
      "componentType": 5125,
      "count": 346191,
      "max": [
        65531
      ],
      "min": [
        0
      ],
      "type": "SCALAR"
    },
    {
      "bufferView": 2,
      "byteOffset": 1572768,
      "componentType": 5126,
      "count": 65532,
      "max": [
        0.81242102384567261,
        0.26833298802375793,
        0.23478299379348755
      ],
      "min": [
        -0.81185799837112427,
        -0.26807498931884766,
        -0.23986199498176575
      ],
      "type": "VEC3"
    },
    {
      "bufferView": 2,
      "byteOffset": 2359152,
      "componentType": 5126,
      "count": 65532,
      "max": [
        0.99999946355819702,
        0.99999898672103882,
        0.99999964237213135
      ],
      "min": [
        -0.9999995231628418,
        -0.99999487400054932,
        -0.9999997615814209
      ],
      "type": "VEC3"
    },
    {
      "bufferView": 3,
      "byteOffset": 1048512,
      "componentType": 5126,
      "count": 65532,
      "max": [
        0.99999964237213135,
        1,
        0.99987673759460449,
        1
      ],
      "min": [
        -0.99995207786560059,
        -0.99999946355819702,
        -0.99988114833831787,
        -1
      ],
      "type": "VEC4"
    },
    {
      "bufferView": 1,
      "byteOffset": 524256,
      "componentType": 5126,
      "count": 65532,
      "max": [
        0.98372799158096313,
        0.86822998523712158
      ],
      "min": [
        0.00032399999327026308,
        0.0079410001635551453
      ],
      "type": "VEC2"
    },
    {
      "bufferView": 0,
      "byteOffset": 1384764,
      "componentType": 5125,
      "count": 332784,
      "max": [
        65531
      ],
      "min": [
        0
      ],
      "type": "SCALAR"
    },
    {
      "bufferView": 2,
      "byteOffset": 3145536,
      "componentType": 5126,
      "count": 65532,
      "max": [
        0.80882197618484497,
        0.2664409875869751,
        0.23598499596118927
      ],
      "min": [
        -0.81300097703933716,
        -0.26834899187088013,
        -0.23247000575065613
      ],
      "type": "VEC3"
    },
    {
      "bufferView": 2,
      "byteOffset": 3931920,
      "componentType": 5126,
      "count": 65532,
      "max": [
        0.99992501735687256,
        0.99999898672103882,
        0.9999997615814209
      ],
      "min": [
        -0.99999988079071045,
        -0.99999922513961792,
        -0.99999964237213135
      ],
      "type": "VEC3"
    },
    {
      "bufferView": 3,
      "byteOffset": 2097024,
      "componentType": 5126,
      "count": 65532,
      "max": [
        0.99999064207077026,
        1,
        0.9999927282333374,
        1
      ],
      "min": [
        -0.99964243173599243,
        -0.99999874830245972,
        -0.99999916553497314,
        -1
      ],
      "type": "VEC4"
    },
    {
      "bufferView": 1,
      "byteOffset": 1048512,
      "componentType": 5126,
      "count": 65532,
      "max": [
        1,
        0.9323430061340332
      ],
      "min": [
        0.0022169998846948147,
        0.072327002882957458
      ],
      "type": "VEC2"
    },
    {
      "bufferView": 0,
      "byteOffset": 2715900,
      "componentType": 5125,
      "count": 331998,
      "max": [
        65531
      ],
      "min": [
        0
      ],
      "type": "SCALAR"
    },
    {
      "bufferView": 2,
      "byteOffset": 4718304,
      "componentType": 5126,
      "count": 65532,
      "max": [
        0.80676299333572388,
        0.24923799932003021,
        0.22840100526809692
      ],
      "min": [
        -0.81071299314498901,
        -0.261819988489151,
        -0.20221099257469177
      ],
      "type": "VEC3"
    },
    {
      "bufferView": 2,
      "byteOffset": 5504688,
      "componentType": 5126,
      "count": 65532,
      "max": [
        0.99971598386764526,
        0.99999374151229858,
        0.99991250038146973
      ],
      "min": [
        -0.99918597936630249,
        -0.9999995231628418,
        -0.99991887807846069
      ],
      "type": "VEC3"
    },
    {
      "bufferView": 3,
      "byteOffset": 3145536,
      "componentType": 5126,
      "count": 65532,
      "max": [
        0.99998563528060913,
        0.99955940246582031,
        0.99999910593032837,
        1
      ],
      "min": [
        -0.99975347518920898,
        -0.9995381236076355,
        -0.99999743700027466,
        -1
      ],
      "type": "VEC4"
    },
    {
      "bufferView": 1,
      "byteOffset": 1572768,
      "componentType": 5126,
      "count": 65532,
      "max": [
        0.95901000499725342,
        0.89319401979446411
      ],
      "min": [
        0.11683700233697891,
        0.014182999730110168
      ],
      "type": "VEC2"
    },
    {
      "bufferView": 0,
      "byteOffset": 4043892,
      "componentType": 5125,
      "count": 326490,
      "max": [
        65531
      ],
      "min": [
        0
      ],
      "type": "SCALAR"
    },
    {
      "bufferView": 2,
      "byteOffset": 6291072,
      "componentType": 5126,
      "count": 65532,
      "max": [
        0.80461001396179199,
        0.26322498917579651,
        0.22822600603103638
      ],
      "min": [
        -0.81091600656509399,
        -0.25729700922966003,
        -0.21142399311065674
      ],
      "type": "VEC3"
    },
    {
      "bufferView": 2,
      "byteOffset": 7077456,
      "componentType": 5126,
      "count": 65532,
      "max": [
        0.99995464086532593,
        0.99999922513961792,
        0.99990564584732056
      ],
      "min": [
        -0.99986624717712402,
        -0.99999946355819702,
        -0.99999350309371948
      ],
      "type": "VEC3"
    },
    {
      "bufferView": 3,
      "byteOffset": 4194048,
      "componentType": 5126,
      "count": 65532,
      "max": [
        0.99999696016311646,
        0.99971288442611694,
        0.99994254112243652,
        1
      ],
      "min": [
        -0.99992787837982178,
        -0.99994337558746338,
        -1,
        -1
      ],
      "type": "VEC4"
    },
    {
      "bufferView": 1,
      "byteOffset": 2097024,
      "componentType": 5126,
      "count": 65532,
      "max": [
        0.90086400508880615,
        0.92357897758483887
      ],
      "min": [
        0.10881700366735458,
        0.0010560000082477927
      ],
      "type": "VEC2"
    },
    {
      "bufferView": 0,
      "byteOffset": 5349852,
      "componentType": 5125,
      "count": 323556,
      "max": [
        65531
      ],
      "min": [
        0
      ],
      "type": "SCALAR"
    },
    {
      "bufferView": 2,
      "byteOffset": 7863840,
      "componentType": 5126,
      "count": 65532,
      "max": [
        0.81188398599624634,
        0.26509600877761841,
        0.2284960001707077
      ],
      "min": [
        -0.8124840259552002,
        -0.25293201208114624,
        -0.23253799974918365
      ],
      "type": "VEC3"
    },
    {
      "bufferView": 2,
      "byteOffset": 8650224,
      "componentType": 5126,
      "count": 65532,
      "max": [
        0.99992865324020386,
        0.99999964237213135,
        0.9999726414680481
      ],
      "min": [
        -0.99859946966171265,
        -0.99999278783798218,
        -0.99999761581420898
      ],
      "type": "VEC3"
    },
    {
      "bufferView": 3,
      "byteOffset": 5242560,
      "componentType": 5126,
      "count": 65532,
      "max": [
        0.99999994039535522,
        0.99994415044784546,
        0.99939179420471191,
        1
      ],
      "min": [
        -1,
        -0.99726980924606323,
        -0.9999922513961792,
        -1
      ],
      "type": "VEC4"
    },
    {
      "bufferView": 1,
      "byteOffset": 2621280,
      "componentType": 5126,
      "count": 65532,
      "max": [
        0.95553302764892578,
        0.91987901926040649
      ],
      "min": [
        0.037928000092506409,
        0.026486000046133995
      ],
      "type": "VEC2"
    },
    {
      "bufferView": 0,
      "byteOffset": 6644076,
      "componentType": 5125,
      "count": 333069,
      "max": [
        65531
      ],
      "min": [
        0
      ],
      "type": "SCALAR"
    },
    {
      "bufferView": 2,
      "byteOffset": 9436608,
      "componentType": 5126,
      "count": 65532,
      "max": [
        0.81133002042770386,
        0.2677290141582489,
        0.23986199498176575
      ],
      "min": [
        -0.81150400638580322,
        -0.26799198985099792,
        -0.23288300633430481
      ],
      "type": "VEC3"
    },
    {
      "bufferView": 2,
      "byteOffset": 10222992,
      "componentType": 5126,
      "count": 65532,
      "max": [
        0.99996888637542725,
        0.99999898672103882,
        0.99999988079071045
      ],
      "min": [
        -0.9999995231628418,
        -0.99999511241912842,
        -0.99999666213989258
      ],
      "type": "VEC3"
    },
    {
      "bufferView": 3,
      "byteOffset": 6291072,
      "componentType": 5126,
      "count": 65532,
      "max": [
        0.99999934434890747,
        0.9999726414680481,
        0.99995934963226318,
        1
      ],
      "min": [
        -0.99999558925628662,
        -0.99999988079071045,
        -0.99999666213989258,
        -1
      ],
      "type": "VEC4"
    },
    {
      "bufferView": 1,
      "byteOffset": 3145536,
      "componentType": 5126,
      "count": 65532,
      "max": [
        1,
        0.90767401456832886
      ],
      "min": [
        0.0028429999947547913,
        0.09230399876832962
      ],
      "type": "VEC2"
    },
    {
      "bufferView": 0,
      "byteOffset": 7976352,
      "componentType": 5125,
      "count": 339108,
      "max": [
        65531
      ],
      "min": [
        0
      ],
      "type": "SCALAR"
    },
    {
      "bufferView": 2,
      "byteOffset": 11009376,
      "componentType": 5126,
      "count": 65532,
      "max": [
        0.81231999397277832,
        0.26834899187088013,
        0.2368759959936142
      ],
      "min": [
        -0.81174498796463013,
        -0.2657569944858551,
        -0.23584799468517303
      ],
      "type": "VEC3"
    },
    {
      "bufferView": 2,
      "byteOffset": 11795760,
      "componentType": 5126,
      "count": 65532,
      "max": [
        0.9999961256980896,
        0.99999654293060303,
        1
      ],
      "min": [
        -0.9999881386756897,
        -0.99999898672103882,
        -0.99999678134918213
      ],
      "type": "VEC3"
    },
    {
      "bufferView": 3,
      "byteOffset": 7339584,
      "componentType": 5126,
      "count": 65532,
      "max": [
        0.99999994039535522,
        0.99999809265136719,
        0.99981075525283813,
        1
      ],
      "min": [
        -0.99982661008834839,
        -0.99999731779098511,
        -0.99999856948852539,
        -1
      ],
      "type": "VEC4"
    },
    {
      "bufferView": 1,
      "byteOffset": 3669792,
      "componentType": 5126,
      "count": 65532,
      "max": [
        0.99928998947143555,
        0.92283397912979126
      ],
      "min": [
        0.0028909998945891857,
        0.0062409997917711735
      ],
      "type": "VEC2"
    },
    {
      "bufferView": 0,
      "byteOffset": 9332784,
      "componentType": 5125,
      "count": 304650,
      "max": [
        65531
      ],
      "min": [
        0
      ],
      "type": "SCALAR"
    },
    {
      "bufferView": 2,
      "byteOffset": 12582144,
      "componentType": 5126,
      "count": 65532,
      "max": [
        0.81104999780654907,
        0.26794201135635376,
        0.23692299425601959
      ],
      "min": [
        -0.81254202127456665,
        -0.26799198985099792,
        -0.23846399784088135
      ],
      "type": "VEC3"
    },
    {
      "bufferView": 2,
      "byteOffset": 13368528,
      "componentType": 5126,
      "count": 65532,
      "max": [
        0.99999153614044189,
        0.99999654293060303,
        1
      ],
      "min": [
        -0.99999374151229858,
        -1,
        -1
      ],
      "type": "VEC3"
    },
    {
      "bufferView": 3,
      "byteOffset": 8388096,
      "componentType": 5126,
      "count": 65532,
      "max": [
        0.99999994039535522,
        0.99999922513961792,
        0.9999927282333374,
        1
      ],
      "min": [
        -0.99997407197952271,
        -1,
        -0.99999725818634033,
        -1
      ],
      "type": "VEC4"
    },
    {
      "bufferView": 1,
      "byteOffset": 4194048,
      "componentType": 5126,
      "count": 65532,
      "max": [
        0.99826300144195557,
        0.9428669810295105
      ],
      "min": [
        0.0044829999096691608,
        0.0040710000321269035
      ],
      "type": "VEC2"
    },
    {
      "bufferView": 0,
      "byteOffset": 10551384,
      "componentType": 5125,
      "count": 275445,
      "max": [
        65531
      ],
      "min": [
        0
      ],
      "type": "SCALAR"
    },
    {
      "bufferView": 2,
      "byteOffset": 14154912,
      "componentType": 5126,
      "count": 65532,
      "max": [
        0.81182301044464111,
        0.26797699928283691,
        0.2398030012845993
      ],
      "min": [
        -0.81217300891876221,
        -0.26816201210021973,
        -0.23826399445533752
      ],
      "type": "VEC3"
    },
    {
      "bufferView": 2,
      "byteOffset": 14941296,
      "componentType": 5126,
      "count": 65532,
      "max": [
        0.99999934434890747,
        0.99999922513961792,
        1
      ],
      "min": [
        -0.99999821186065674,
        -0.99999922513961792,
        -0.9999997615814209
      ],
      "type": "VEC3"
    },
    {
      "bufferView": 3,
      "byteOffset": 9436608,
      "componentType": 5126,
      "count": 65532,
      "max": [
        0.99999994039535522,
        0.99999988079071045,
        0.99995821714401245,
        1
      ],
      "min": [
        -0.99999099969863892,
        -0.99999707937240601,
        -1,
        -1
      ],
      "type": "VEC4"
    },
    {
      "bufferView": 1,
      "byteOffset": 4718304,
      "componentType": 5126,
      "count": 65532,
      "max": [
        0.9996039867401123,
        0.93927097320556641
      ],
      "min": [
        0,
        0.0042750001884996891
      ],
      "type": "VEC2"
    },
    {
      "bufferView": 0,
      "byteOffset": 11653164,
      "componentType": 5125,
      "count": 169239,
      "max": [
        65531
      ],
      "min": [
        0
      ],
      "type": "SCALAR"
    },
    {
      "bufferView": 2,
      "byteOffset": 15727680,
      "componentType": 5126,
      "count": 29987,
      "max": [
        0.81242102384567261,
        0.26782500743865967,
        0.23961000144481659
      ],
      "min": [
        -0.8124840259552002,
        -0.26823800802230835,
        -0.23986199498176575
      ],
      "type": "VEC3"
    },
    {
      "bufferView": 2,
      "byteOffset": 16087524,
      "componentType": 5126,
      "count": 29987,
      "max": [
        0.99999809265136719,
        0.99999809265136719,
        1
      ],
      "min": [
        -0.99998944997787476,
        -0.99999922513961792,
        -0.99999898672103882
      ],
      "type": "VEC3"
    },
    {
      "bufferView": 3,
      "byteOffset": 10485120,
      "componentType": 5126,
      "count": 29987,
      "max": [
        0.99999892711639404,
        0.99999892711639404,
        0.99999082088470459,
        1
      ],
      "min": [
        -0.99996167421340942,
        -0.99999517202377319,
        -0.99999856948852539,
        -1
      ],
      "type": "VEC4"
    },
    {
      "bufferView": 1,
      "byteOffset": 5242560,
      "componentType": 5126,
      "count": 29987,
      "max": [
        0.99954801797866821,
        0.94424498081207275
      ],
      "min": [
        0.0018649999983608723,
        0
      ],
      "type": "VEC2"
    },
    {
      "bufferView": 0,
      "byteOffset": 12330120,
      "componentType": 5125,
      "count": 50976,
      "max": [
        29986
      ],
      "min": [
        0
      ],
      "type": "SCALAR"
    }
  ],
  "asset": {
    "extras": {
      "author": "Spogna (https://sketchfab.com/spogna)",
      "license": "CC-BY-NC-4.0 (http://creativecommons.org/licenses/by-nc/4.0/)",
      "source": "https://sketchfab.com/models/258755b348bf48e08bac5fc554af7c90",
      "title": "Bose SoundLink Mini II - RAWscan"
    },
    "generator": "Sketchfab-4.23.2",
    "version": "2.0"
  },
  "bufferViews": [
    {
      "buffer": 0,
      "byteLength": 12534024,
      "byteOffset": 0,
      "name": "floatBufferViews",
      "target": 34963
    },
    {
      "buffer": 0,
      "byteLength": 5482456,
      "byteOffset": 12534024,
      "byteStride": 8,
      "name": "floatBufferViews",
      "target": 34962
    },
    {
      "buffer": 0,
      "byteLength": 16447368,
      "byteOffset": 18016480,
      "byteStride": 12,
      "name": "floatBufferViews",
      "target": 34962
    },
    {
      "buffer": 0,
      "byteLength": 10964912,
      "byteOffset": 34463848,
      "byteStride": 16,
      "name": "floatBufferViews",
      "target": 34962
    }
  ],
  "buffers": [
    {
      "byteLength": 45428760,
      "uri": "scene3.bin"
    }
  ],
  "extensionsRequired": [
    "KHR_materials_pbrSpecularGlossiness"
  ],
  "extensionsUsed": [
    "KHR_materials_pbrSpecularGlossiness"
  ],
  "images": [
    {
      "uri": "material_0_diffuse.jpeg"
    }
  ],
  "materials": [
    {
      "doubleSided": true,
      "emissiveFactor": [
        0,
        0,
        0
      ],
      "extensions": {
        "KHR_materials_pbrSpecularGlossiness": {
          "diffuseFactor": [
            1,
            1,
            1,
            1
          ],
          "diffuseTexture": {
            "index": 0,
            "texCoord": 0
          },
          "glossinessFactor": 0,
          "specularFactor": [
            0,
            0,
            0
          ]
        }
      },
      "name": "material_0"
    }
  ],
  "meshes": [
    {
      "primitives": [
        {
          "attributes": {
            "NORMAL": 1,
            "POSITION": 0,
            "TANGENT": 2,
            "TEXCOORD_0": 3
          },
          "indices": 4,
          "material": 0,
          "mode": 4
        }
      ]
    },
    {
      "primitives": [
        {
          "attributes": {
            "NORMAL": 6,
            "POSITION": 5,
            "TANGENT": 7,
            "TEXCOORD_0": 8
          },
          "indices": 9,
          "material": 0,
          "mode": 4
        }
      ]
    },
    {
      "primitives": [
        {
          "attributes": {
            "NORMAL": 11,
            "POSITION": 10,
            "TANGENT": 12,
            "TEXCOORD_0": 13
          },
          "indices": 14,
          "material": 0,
          "mode": 4
        }
      ]
    },
    {
      "primitives": [
        {
          "attributes": {
            "NORMAL": 16,
            "POSITION": 15,
            "TANGENT": 17,
            "TEXCOORD_0": 18
          },
          "indices": 19,
          "material": 0,
          "mode": 4
        }
      ]
    },
    {
      "primitives": [
        {
          "attributes": {
            "NORMAL": 21,
            "POSITION": 20,
            "TANGENT": 22,
            "TEXCOORD_0": 23
          },
          "indices": 24,
          "material": 0,
          "mode": 4
        }
      ]
    },
    {
      "primitives": [
        {
          "attributes": {
            "NORMAL": 26,
            "POSITION": 25,
            "TANGENT": 27,
            "TEXCOORD_0": 28
          },
          "indices": 29,
          "material": 0,
          "mode": 4
        }
      ]
    },
    {
      "primitives": [
        {
          "attributes": {
            "NORMAL": 31,
            "POSITION": 30,
            "TANGENT": 32,
            "TEXCOORD_0": 33
          },
          "indices": 34,
          "material": 0,
          "mode": 4
        }
      ]
    },
    {
      "primitives": [
        {
          "attributes": {
            "NORMAL": 36,
            "POSITION": 35,
            "TANGENT": 37,
            "TEXCOORD_0": 38
          },
          "indices": 39,
          "material": 0,
          "mode": 4
        }
      ]
    },
    {
      "primitives": [
        {
          "attributes": {
            "NORMAL": 41,
            "POSITION": 40,
            "TANGENT": 42,
            "TEXCOORD_0": 43
          },
          "indices": 44,
          "material": 0,
          "mode": 4
        }
      ]
    },
    {
      "primitives": [
        {
          "attributes": {
            "NORMAL": 46,
            "POSITION": 45,
            "TANGENT": 47,
            "TEXCOORD_0": 48
          },
          "indices": 49,
          "material": 0,
          "mode": 4
        }
      ]
    },
    {
      "primitives": [
        {
          "attributes": {
            "NORMAL": 51,
            "POSITION": 50,
            "TANGENT": 52,
            "TEXCOORD_0": 53
          },
          "indices": 54,
          "material": 0,
          "mode": 4
        }
      ]
    }
  ],
  "nodes": [
    {
      "children": [
        1
      ],
      "name": "RootNode (gltf orientation matrix)",
      "rotation": [
        -0.70710678118654746,
        -0,
        -0,
        0.70710678118654757
      ]
    },
    {
      "children": [
        2
      ],
      "name": "RootNode (model correction matrix)"
    },
    {
      "children": [
        3,
        4,
        5,
        6,
        7,
        8,
        9,
        10,
        11,
        12,
        13
      ],
      "name": "bose.obj.cleaner.materialmerger.gles"
    },
    {
      "mesh": 0,
      "name": ""
    },
    {
      "mesh": 1,
      "name": ""
    },
    {
      "mesh": 2,
      "name": ""
    },
    {
      "mesh": 3,
      "name": ""
    },
    {
      "mesh": 4,
      "name": ""
    },
    {
      "mesh": 5,
      "name": ""
    },
    {
      "mesh": 6,
      "name": ""
    },
    {
      "mesh": 7,
      "name": ""
    },
    {
      "mesh": 8,
      "name": ""
    },
    {
      "mesh": 9,
      "name": ""
    },
    {
      "mesh": 10,
      "name": ""
    }
  ],
  "samplers": [
    {
      "magFilter": 9729,
      "minFilter": 9987,
      "wrapS": 10497,
      "wrapT": 10497
    }
  ],
  "scene": 0,
  "scenes": [
    {
      "name": "OSG_Scene",
      "nodes": [
        0
      ]
    }
  ],
  "textures": [
    {
      "sampler": 0,
      "source": 0
    }
  ]
}

